<?xml version="1.0" standalone="no"?>
<!DOCTYPE svg PUBLIC "-//W3C//DTD SVG 20010904//EN"
 "http://www.w3.org/TR/2001/REC-SVG-20010904/DTD/svg10.dtd">
<svg version="1.0" xmlns="http://www.w3.org/2000/svg"
 width="1281.000000pt" height="377.000000pt" viewBox="0 0 1281.000000 377.000000"
 preserveAspectRatio="xMidYMid meet">

<g transform="translate(0.000000,377.000000) scale(0.100000,-0.100000)"
fill="#333" stroke="none">
<path d="M5008 3435 c-110 -42 -199 -165 -271 -376 -65 -187 -110 -392 -137
-614 -14 -120 -16 -125 -49 -125 -124 0 -332 -128 -435 -269 -82 -111 -146
-287 -146 -401 0 -57 0 -57 -62 -117 -35 -33 -73 -65 -86 -72 -34 -18 -79 -17
-101 3 -40 36 -36 88 25 391 64 321 58 407 -32 447 -61 26 -126 20 -209 -21
-126 -63 -236 -191 -341 -401 -31 -63 -59 -110 -61 -104 -4 12 20 161 41 249
69 290 66 303 -60 292 -126 -12 -156 -47 -203 -232 -28 -109 -49 -240 -57
-360 l-7 -100 -71 -73 c-78 -81 -110 -102 -154 -102 -51 0 -67 30 -64 123 2
70 44 341 72 464 6 23 10 67 10 97 0 84 -17 96 -128 96 l-88 0 -13 36 c-21 57
-79 68 -200 38 -256 -63 -476 -335 -508 -628 l-8 -69 -80 -28 c-264 -95 -505
-122 -700 -79 -262 58 -401 216 -436 496 -11 85 -10 118 5 234 19 151 34 213
79 315 97 226 268 373 468 405 135 22 233 -14 277 -100 21 -40 23 -54 18 -135
-3 -49 -8 -117 -12 -151 -6 -58 -5 -63 24 -95 26 -30 36 -33 93 -37 55 -3 69
0 99 20 49 33 76 79 94 158 42 181 2 359 -106 477 -51 54 -101 84 -193 115
-100 33 -313 33 -430 0 -173 -50 -299 -123 -420 -246 -97 -97 -153 -177 -210
-300 -92 -195 -127 -353 -128 -586 -2 -203 14 -282 85 -430 45 -92 61 -115
142 -195 144 -143 297 -211 541 -242 111 -13 150 -14 265 -4 206 19 401 62
528 117 l52 23 46 -49 c53 -57 95 -78 178 -93 54 -9 71 -8 136 12 68 21 81 29
147 97 l73 73 15 -30 c39 -75 117 -137 193 -154 71 -15 193 34 285 115 l45 40
16 -48 c9 -27 30 -62 47 -78 25 -24 38 -28 83 -28 34 0 63 6 80 18 29 18 68
95 80 156 12 59 66 220 100 295 74 166 156 285 196 285 37 0 41 -31 19 -156
-50 -292 -52 -316 -42 -392 17 -120 70 -179 182 -204 106 -23 265 27 379 120
l43 35 16 -24 c74 -109 211 -159 344 -125 76 20 153 69 216 140 41 47 46 50
56 32 33 -52 92 -119 126 -141 21 -14 65 -31 98 -37 53 -10 68 -8 130 10 69
21 161 75 215 127 l27 25 16 -30 c47 -91 144 -150 223 -135 93 17 182 97 233
210 33 73 49 92 49 58 -1 -38 -39 -236 -47 -242 -4 -4 -57 -48 -118 -97 -298
-242 -457 -444 -494 -632 -33 -162 7 -275 120 -337 48 -27 63 -30 139 -30 73
1 93 5 138 28 101 52 170 132 243 277 75 152 150 388 204 650 10 47 25 92 34
101 9 9 101 73 205 143 l189 125 27 -37 c112 -156 420 -245 732 -212 231 24
387 83 501 190 106 99 157 221 157 375 0 156 -52 262 -179 367 -54 45 -193
114 -396 198 -237 98 -333 159 -378 244 -17 32 -22 58 -22 121 0 91 16 127 84
188 120 109 442 126 591 32 78 -50 95 -97 79 -230 -12 -110 -7 -133 36 -175
28 -27 44 -34 87 -38 87 -7 145 45 173 153 30 117 14 258 -38 348 -37 63 -128
144 -199 177 -119 56 -215 74 -388 74 -128 1 -172 -3 -254 -23 -207 -49 -364
-160 -439 -309 -47 -94 -61 -165 -55 -283 4 -80 10 -107 35 -160 34 -73 82
-133 150 -190 56 -47 233 -137 388 -198 304 -120 405 -202 405 -330 0 -183
-157 -284 -440 -283 -191 0 -303 33 -368 106 -37 43 -46 94 -34 191 13 97 6
129 -34 165 -31 27 -42 30 -101 30 -62 0 -67 -2 -103 -38 -42 -42 -70 -117
-70 -188 0 -37 -5 -46 -32 -67 -18 -13 -86 -63 -150 -110 -136 -100 -130 -104
-103 60 8 51 19 121 24 155 6 35 21 130 36 211 14 82 28 188 32 236 6 84 5 89
-18 104 -43 31 -152 15 -194 -28 -14 -13 -36 -63 -55 -126 -116 -388 -233
-619 -313 -619 -45 0 -61 38 -54 128 7 83 37 268 62 372 54 228 55 263 9 280
-63 24 -157 5 -202 -41 -50 -52 -111 -268 -137 -487 -8 -70 -15 -135 -15 -144
0 -24 -92 -121 -149 -158 -59 -37 -120 -43 -153 -14 -34 30 -59 100 -65 178
-6 71 -5 75 34 142 186 319 367 777 414 1044 64 371 -11 603 -200 616 -34 2
-71 -2 -93 -11z m89 -252 c45 -108 22 -350 -59 -616 -57 -191 -177 -485 -186
-458 -11 32 31 466 68 716 13 88 56 263 76 313 19 43 52 82 71 82 8 0 21 -17
30 -37z m-2767 -1091 c0 -43 -104 -510 -121 -544 -57 -113 -119 -149 -189
-113 -45 23 -60 62 -60 157 0 202 114 419 255 485 49 22 115 31 115 15z m2232
-145 c-2 -67 2 -167 9 -222 6 -55 11 -108 11 -118 -1 -28 -94 -139 -138 -165
-28 -17 -49 -22 -77 -18 -75 9 -107 64 -107 184 0 139 49 265 143 368 44 48
143 111 156 98 3 -2 4 -60 3 -127z m1098 -1080 c-24 -107 -83 -284 -119 -357
-20 -41 -55 -94 -77 -118 -36 -37 -47 -43 -75 -40 -28 2 -37 10 -53 42 -17 34
-17 44 -6 95 16 71 55 149 114 228 56 74 219 229 224 213 2 -6 -1 -34 -8 -63z"/>
<path d="M8401 2310 c-24 -5 -71 -22 -105 -38 -200 -95 -316 -303 -318 -567
-1 -173 49 -303 152 -399 68 -63 107 -82 203 -102 111 -24 231 -3 318 55 107
72 204 205 234 320 l11 46 78 11 c56 7 79 7 81 0 2 -6 6 -54 8 -106 5 -105 20
-149 73 -222 111 -151 345 -152 487 0 26 28 47 56 47 62 0 24 20 6 48 -43 16
-29 45 -65 64 -79 47 -36 125 -61 169 -54 l37 6 -51 -133 c-27 -72 -66 -193
-85 -267 -33 -128 -35 -144 -36 -310 -1 -169 0 -177 25 -230 15 -30 39 -67 55
-82 35 -32 102 -58 153 -58 227 0 367 267 441 842 11 84 20 169 20 188 l0 36
83 15 c45 9 111 30 146 48 l63 31 34 -30 c54 -47 133 -65 224 -52 41 6 76 9
77 8 1 -1 -5 -15 -12 -31 -31 -66 -85 -218 -113 -321 -100 -365 -74 -630 71
-706 59 -32 174 -32 233 -1 56 30 123 106 161 184 77 160 153 489 169 738 4
55 10 103 13 108 3 5 44 17 91 27 47 10 109 31 139 47 54 29 55 29 75 10 33
-31 112 -62 169 -67 70 -7 191 24 264 67 32 19 103 79 159 134 91 90 102 105
114 153 23 97 -3 172 -59 172 -19 0 -52 -27 -136 -114 -128 -131 -171 -158
-258 -158 -32 0 -63 4 -68 9 -6 6 5 38 31 85 53 99 78 173 95 289 13 82 13
108 1 180 -24 142 -71 222 -165 277 -38 22 -57 27 -121 27 -98 0 -164 -31
-244 -115 -32 -33 -62 -60 -67 -60 -5 0 -9 29 -9 65 0 58 -3 69 -26 92 -23 23
-31 25 -84 20 -73 -6 -137 -40 -161 -85 -16 -31 -17 -57 -12 -276 3 -134 3
-255 -1 -270 -10 -39 -152 -183 -209 -213 -48 -24 -122 -32 -165 -19 -18 6
-16 14 33 110 70 139 90 221 89 366 -1 130 -20 200 -74 273 -115 156 -326 151
-471 -12 -27 -30 -52 -52 -55 -48 -4 4 -9 30 -11 59 -2 29 -6 63 -8 74 -7 31
-55 48 -117 40 -60 -8 -94 -24 -128 -61 l-25 -27 -5 -283 -5 -283 -25 -28
c-133 -148 -176 -184 -224 -184 -86 1 -92 58 -39 355 61 351 63 372 30 403
-20 19 -35 22 -109 22 l-86 0 -12 30 c-26 62 -78 74 -199 44 -156 -39 -292
-141 -391 -295 -22 -34 -42 -69 -45 -78 -6 -19 -94 -41 -167 -41 l-45 0 -17
67 c-40 164 -135 288 -251 332 -68 26 -185 35 -254 21z m1315 -234 c-3 -13
-26 -125 -50 -248 -47 -242 -71 -310 -129 -366 -44 -42 -91 -50 -135 -22 -47
29 -55 59 -49 185 5 117 17 161 69 263 60 117 179 212 267 212 30 0 33 -2 27
-24z m-1214 -99 c4 -77 10 -104 36 -159 18 -37 49 -81 73 -103 l41 -37 -13
-46 c-27 -99 -98 -176 -169 -182 -68 -6 -84 0 -130 48 -61 64 -74 109 -67 249
5 122 15 163 55 222 32 47 60 69 111 87 58 21 58 21 63 -79z m2306 60 c100
-93 5 -438 -156 -565 -45 -36 -111 -67 -121 -57 -3 4 -6 109 -6 235 l1 228 29
41 c38 55 129 138 158 144 34 7 70 -2 95 -26z m1117 19 c38 -16 50 -35 64 -95
18 -80 -24 -267 -81 -359 -58 -95 -203 -211 -230 -184 -6 6 -9 99 -6 239 l3
230 42 56 c45 58 91 99 133 116 34 13 36 13 75 -3z m-1685 -783 c-1 -71 -32
-461 -46 -568 -40 -314 -111 -436 -171 -296 -32 76 2 328 78 562 45 140 119
329 130 329 5 0 9 -12 9 -27z m1137 -125 c-12 -266 -47 -559 -83 -683 -33
-116 -80 -146 -117 -75 -16 30 -18 52 -13 165 4 105 11 156 39 265 46 178 154
480 171 480 6 0 7 -58 3 -152z"/>
</g>
</svg>
